<?xml version="1.0" encoding="UTF-8"?>
<svg xmlns="http://www.w3.org/2000/svg" viewBox="0 0 500 500">
  <!-- Background Circle -->
  <circle cx="250" cy="250" r="200" fill="#e2d9d1" />
  
  <!-- Neural Network Elements -->
  <g stroke-width="4" stroke-linecap="round">
    <!-- Neural Connections -->
    <line x1="150" y1="180" x2="250" y2="140" stroke="#a89e94" />
    <line x1="150" y1="180" x2="250" y2="250" stroke="#a89e94" />
    <line x1="150" y1="180" x2="250" y2="360" stroke="#a89e94" />
    
    <line x1="150" y1="320" x2="250" y2="140" stroke="#a89e94" />
    <line x1="150" y1="320" x2="250" y2="250" stroke="#a89e94" />
    <line x1="150" y1="320" x2="250" y2="360" stroke="#a89e94" />
    
    <line x1="250" y1="140" x2="350" y2="200" stroke="#7d92a3" />
    <line x1="250" y1="250" x2="350" y2="200" stroke="#7d92a3" />
    <line x1="250" y1="360" x2="350" y2="200" stroke="#7d92a3" />
    
    <line x1="250" y1="140" x2="350" y2="300" stroke="#7d92a3" />
    <line x1="250" y1="250" x2="350" y2="300" stroke="#7d92a3" />
    <line x1="250" y1="360" x2="350" y2="300" stroke="#7d92a3" />
    
    <!-- Neural Nodes -->
    <circle cx="150" cy="180" r="15" fill="#b5aebd" />
    <circle cx="150" cy="320" r="15" fill="#b5aebd" />
    
    <circle cx="250" cy="140" r="15" fill="#8db0a7" />
    <circle cx="250" cy="250" r="15" fill="#8db0a7" />
    <circle cx="250" cy="360" r="15" fill="#8db0a7" />
    
    <circle cx="350" cy="200" r="15" fill="#d1a298" />
    <circle cx="350" cy="300" r="15" fill="#d1a298" />
  </g>
  
  <!-- Removed the dollar sign vertical element as requested -->
  
  <!-- Text removed as requested -->
</svg> 