<?xml version="1.0" encoding="UTF-8"?>
<svg xmlns="http://www.w3.org/2000/svg" width="180" height="180" viewBox="0 0 180 180">
  <defs>
    <linearGradient id="logoGradient" x1="0%" y1="0%" x2="100%" y2="100%">
      <stop offset="0%" stop-color="#3b82f6" />
      <stop offset="100%" stop-color="#1e3a8a" />
    </linearGradient>
    <filter id="dropShadow" x="-20%" y="-20%" width="140%" height="140%">
      <feGaussianBlur in="SourceAlpha" stdDeviation="3" />
      <feOffset dx="2" dy="2" result="offsetblur" />
      <feComponentTransfer>
        <feFuncA type="linear" slope="0.3" />
      </feComponentTransfer>
      <feMerge>
        <feMergeNode />
        <feMergeNode in="SourceGraphic" />
      </feMerge>
    </filter>
  </defs>
  
  <!-- Circle background -->
  <circle cx="90" cy="90" r="80" fill="white" stroke="#dbeafe" stroke-width="2" />
  
  <!-- Main brain shape -->
  <path d="M60,65 C60,45 80,40 90,40 C100,40 120,45 120,65 C120,85 115,95 110,105 
           C105,115 100,125 90,125 C80,125 75,115 70,105 C65,95 60,85 60,65 Z" 
        fill="url(#logoGradient)" filter="url(#dropShadow)" />
  
  <!-- Neural connections -->
  <circle cx="75" cy="70" r="4" fill="#60a5fa" />
  <circle cx="105" cy="70" r="4" fill="#60a5fa" />
  <circle cx="90" cy="85" r="4" fill="#60a5fa" />
  <circle cx="75" cy="100" r="4" fill="#60a5fa" />
  <circle cx="105" cy="100" r="4" fill="#60a5fa" />
  
  <!-- Connection lines -->
  <line x1="75" y1="70" x2="90" y2="85" stroke="#93c5fd" stroke-width="2" />
  <line x1="105" y1="70" x2="90" y2="85" stroke="#93c5fd" stroke-width="2" />
  <line x1="90" y1="85" x2="75" y2="100" stroke="#93c5fd" stroke-width="2" />
  <line x1="90" y1="85" x2="105" y2="100" stroke="#93c5fd" stroke-width="2" />
  <line x1="75" y1="70" x2="105" y2="70" stroke="#93c5fd" stroke-width="2" />
  <line x1="75" y1="100" x2="105" y2="100" stroke="#93c5fd" stroke-width="2" />
  
  <!-- Financial element -->
  <path d="M70,130 L110,130 L110,140 L70,140 Z" fill="#3b82f6" filter="url(#dropShadow)" />
  <rect x="75" y="135" width="5" height="10" fill="#bfdbfe" />
  <rect x="85" y="132" width="5" height="13" fill="#bfdbfe" />
  <rect x="95" y="128" width="5" height="17" fill="#bfdbfe" />
  <rect x="105" y="134" width="5" height="11" fill="#bfdbfe" />
</svg> 